<svg
            id="bell"
            xmlns="http://www.w3.org/2000/svg"
            width="31"
            height="31"
            viewBox="0 0 31 31"
            fill="none"
          >
            <path
              d="M17.1915 3.79592C17.1915 5.34006 15.9397 6.59184 14.3956 6.59184C12.8514 6.59184 11.5996 5.34006 11.5996 3.79592C11.5996 2.25178 12.8514 1 14.3956 1C15.9397 1 17.1915 2.25178 17.1915 3.79592Z"
              fill="#0A8ED9"
              stroke="white"
              stroke-width="2"
            />
            <path
              d="M25.7242 22.2323C27.2943 23.7367 28.3476 24.9868 28.8419 25.9934C29.0841 26.4867 29.1585 26.8556 29.1441 27.126C29.1311 27.3703 29.0435 27.5997 28.8136 27.8417C28.2881 28.395 27.0569 28.9733 24.6368 29.3846C22.272 29.7865 18.9668 30.0001 14.5274 30.0001C10.0965 30.0001 6.95297 29.7136 4.79471 29.2296C2.59378 28.736 1.6191 28.0805 1.24035 27.526C0.922946 27.0613 0.886603 26.4438 1.33612 25.4799C1.79103 24.5045 2.65336 23.3921 3.74923 22.1813C5.41283 20.3433 6.04871 18.2807 6.3251 16.312C6.46217 15.3356 6.51255 14.3683 6.55281 13.4679C6.55698 13.3748 6.56103 13.2826 6.56504 13.1913C6.60056 12.3831 6.63317 11.641 6.71401 10.9408C6.89305 9.3898 7.2873 8.27091 8.2581 7.48711C9.26677 6.67275 11.0918 6.06128 14.5274 6.06128C17.9537 6.06128 19.7733 6.70009 20.786 7.54578C21.7723 8.36943 22.1774 9.54342 22.3782 11.1356C22.4633 11.811 22.5073 12.5178 22.5547 13.2787C22.5634 13.4184 22.5722 13.5599 22.5814 13.7034C22.6396 14.6113 22.7127 15.58 22.8787 16.5493C23.2138 18.5061 23.9362 20.5192 25.7242 22.2323Z"
              fill="#0A8ED9"
              stroke="white"
              stroke-width="2"
            />
          </svg>
